<svg xmlns="http://www.w3.org/2000/svg" data-name="Layer 2" viewBox="0 0 48 60" x="0px" y="0px"><title>Question</title><path d="M24,39.1A15.1,15.1,0,1,1,39.1,24,15.1,15.1,0,0,1,24,39.1Zm0-27.68A12.58,12.58,0,1,0,36.58,24h0A12.58,12.58,0,0,0,24,11.42Z"/><path d="M26.7,24.53c-1.23.88-1.79,1.74-1.69,2.58v.59H22.35v-.81a4.09,4.09,0,0,1,1.85-3.46c1.27-.93,1.89-1.8,1.84-2.58a1.79,1.79,0,0,0-1.82-1.77h0a2.53,2.53,0,0,0-2.5,1.86,1,1,0,0,1-1.1.59l-1.05-.24a1,1,0,0,1-.7-1.23q1.21-3.69,5.79-3.56,4.27.22,4.64,3.91.15,2.36-2.58,4.12Z"/><rect x="22.06" y="29.1" width="3.24" height="3.02" rx="0.96"/><text x="0" y="63" fill="#000000" font-size="5px" font-weight="bold" font-family="'Helvetica Neue', Helvetica, Arial-Unicode, Arial, Sans-serif">Created by Fengquan Li</text></svg>
